# xmcd
#
# Track frame offsets:
#	150
#	21975
#	45329
#	62515
#	80231
#	98100
#	113932
#	127371
#	148063
#	166824
#
# Disc length: 2452 seconds
#
# Revision: 0
# Processed by: cddbd v1.5.1PL0 Copyright (c) Steve Scherf et al.
# Submitted via: MusicWizard 7.1.1b
#
DISCID=8b09920a
DTITLE=Mickey Newbury - Sweet Memories
DYEAR=1985
DGENRE=Country
TTITLE0=An American Trilogy
TTITLE1=Good Morning, Dear
TTITLE2=If You Ever Get To Houston
TTITLE3=She Even Woke Me Up To Say Goodbye
TTITLE4=Dizzy Lizzy
TTITLE5=Sweet Memories
TTITLE6=Remember The Good
TTITLE7=Sunshine
TTITLE8=The Future's Not What It Used To Be
TTITLE9=How I Love Them Old Songs
EXTD=(c)1985 MCA Records, Inc.\n(p)1973,1974,1975 MCA Records   -    MCA-945
EXTT0=
EXTT1=
EXTT2=
EXTT3=
EXTT4=
EXTT5=
EXTT6=
EXTT7=
EXTT8=
EXTT9=
PLAYORDER=
